<?xml version="1.0" encoding="UTF-8"?>
<svg xmlns="http://www.w3.org/2000/svg" xmlns:xlink="http://www.w3.org/1999/xlink" width="250px" height="76px" viewBox="0 0 248 76" version="1.1">
  <g id="surface1">
    <path style=" stroke:none;fill-rule:nonzero;fill:rgb(85.490196%,16.078431%,10.980392%);fill-opacity:1;" d="M 31.453125 0.160156 C 22.65625 0.964844 12.902344 3.90625 4.238281 8.347656 L 0.613281 10.195312 L 0.425781 11.398438 C 0.0546875 14.261719 -0.0546875 20.257812 0.238281 24.351562 C 2.078125 50.765625 13.273438 68.320312 32.546875 75.0625 L 35.292969 76.027344 L 38.0625 75.0625 C 57.308594 68.398438 68.558594 50.765625 70.394531 24.351562 C 70.691406 20.257812 70.582031 14.261719 70.210938 11.398438 L 70.023438 10.195312 L 66.664062 8.484375 C 59.28125 4.65625 51.550781 2.0625 43.875 0.804688 C 40.78125 0.269531 33.933594 -0.0546875 31.453125 0.160156 Z M 40.730469 12.121094 C 43.367188 13.03125 45.289062 14.261719 47.234375 16.191406 C 49.5 18.464844 49.871094 19.453125 48.832031 20.660156 C 47.980469 21.648438 46.992188 21.273438 44.941406 19.1875 C 42.113281 16.296875 39.101562 14.984375 35.316406 14.984375 C 31.398438 15.011719 28.519531 16.242188 25.667969 19.160156 C 24.121094 20.738281 23.589844 21.140625 22.949219 21.140625 C 21.910156 21.140625 20.949219 19.988281 21.191406 19.027344 C 21.589844 17.449219 24.949219 14.371094 27.933594 12.871094 C 31.453125 11.078125 36.917969 10.757812 40.730469 12.121094 Z M 38.144531 18.359375 C 40.808594 19.132812 43.074219 20.953125 44.246094 23.28125 C 44.941406 24.621094 44.914062 25.101562 44.195312 25.878906 C 43.367188 26.761719 42.300781 26.679688 41.527344 25.691406 C 39.261719 22.691406 37.71875 21.675781 35.425781 21.675781 C 33.027344 21.675781 31.347656 22.640625 29.585938 25.046875 C 28.707031 26.226562 28.359375 26.492188 27.722656 26.492188 C 26.707031 26.492188 25.855469 25.636719 25.855469 24.671875 C 25.855469 23.710938 27.054688 21.808594 28.519531 20.5 C 31.054688 18.195312 34.785156 17.367188 38.144531 18.359375 Z M 42.328125 29.140625 C 45.101562 29.945312 46.78125 30.882812 48.566406 32.59375 C 50.859375 34.789062 52.378906 38.269531 51.871094 40.222656 C 51.605469 41.34375 50.777344 41.480469 44.007812 41.480469 C 36.835938 41.480469 37.449219 41.691406 37.183594 39.152344 C 36.996094 37.652344 37.023438 37.546875 37.824219 36.6875 C 39.183594 35.21875 39.238281 33.398438 37.984375 31.871094 C 36.570312 30.1875 34.09375 30.1875 32.679688 31.871094 C 31.375 33.425781 31.453125 35.296875 32.890625 36.742188 L 33.773438 37.625 L 33.503906 39.550781 L 33.238281 41.480469 L 26.761719 41.480469 C 19.859375 41.480469 19.03125 41.34375 18.765625 40.222656 C 18.097656 37.570312 20.550781 33.316406 24.042969 31.042969 C 27.109375 29.035156 30.28125 28.367188 36.117188 28.5 C 39.476562 28.554688 40.808594 28.714844 42.328125 29.140625 Z M 51.496094 44.074219 C 52.136719 44.636719 52.109375 45.625 51.445312 46.296875 C 50.910156 46.832031 50.566406 46.832031 35.316406 46.832031 C 20.070312 46.832031 19.726562 46.832031 19.191406 46.296875 C 18.550781 45.652344 18.5 44.769531 19.113281 44.101562 C 19.511719 43.644531 20.363281 43.621094 35.265625 43.621094 C 49.523438 43.621094 51.042969 43.671875 51.496094 44.074219 Z M 51.417969 49.132812 C 51.949219 49.535156 52.03125 49.746094 51.925781 50.898438 C 51.738281 52.609375 50.617188 54.269531 49.046875 55.046875 C 47.871094 55.660156 47.792969 55.660156 35.316406 55.660156 C 22.84375 55.660156 22.761719 55.660156 21.589844 55.046875 C 20.019531 54.269531 18.898438 52.609375 18.710938 50.898438 C 18.5 48.570312 17.539062 48.703125 35.316406 48.703125 C 49.207031 48.703125 50.859375 48.757812 51.417969 49.132812 Z M 51.417969 49.132812 "></path>
    <path style=" stroke:none;fill-rule:nonzero;fill:rgb(85.490196%,16.078431%,10.980392%);fill-opacity:1;" d="M 72.554688 23.871094 C 72.316406 24.109375 72.234375 29.0625 72.234375 44.476562 C 72.234375 64.226562 72.234375 64.761719 72.742188 65.027344 C 73.0625 65.1875 75.382812 65.296875 78.445312 65.296875 C 83.109375 65.296875 83.644531 65.242188 84.042969 64.8125 C 84.46875 64.359375 84.496094 62.539062 84.496094 44.261719 C 84.496094 29.007812 84.417969 24.109375 84.175781 23.871094 C 83.722656 23.414062 73.007812 23.414062 72.554688 23.871094 Z M 72.554688 23.871094 "></path>
    <path style=" stroke:none;fill-rule:nonzero;fill:rgb(85.490196%,16.078431%,10.980392%);fill-opacity:1;" d="M 87.242188 23.84375 C 86.976562 24.109375 86.894531 28.605469 86.894531 44.476562 C 86.894531 64.226562 86.894531 64.761719 87.402344 65.027344 C 87.722656 65.1875 90.042969 65.296875 93.105469 65.296875 C 97.769531 65.296875 98.304688 65.242188 98.703125 64.8125 C 99.105469 64.386719 99.15625 63.503906 99.15625 58.125 L 99.15625 51.914062 L 101.101562 51.914062 C 109.738281 51.890625 114.882812 46.671875 114.882812 37.894531 C 114.882812 33.53125 113.683594 30.320312 111.046875 27.671875 C 109.339844 25.957031 107.527344 24.941406 104.886719 24.164062 C 102.78125 23.574219 87.777344 23.308594 87.242188 23.84375 Z M 100.757812 34.121094 C 101.847656 34.683594 102.460938 35.964844 102.460938 37.730469 C 102.460938 39.390625 101.929688 40.460938 100.730469 41.105469 C 99.183594 41.90625 99.15625 41.855469 99.15625 37.597656 C 99.15625 33.34375 99.183594 33.289062 100.757812 34.121094 Z M 100.757812 34.121094 "></path>
    <path style=" stroke:none;fill-rule:nonzero;fill:rgb(85.490196%,16.078431%,10.980392%);fill-opacity:1;" d="M 116.003906 23.871094 C 115.761719 24.109375 115.683594 29.0625 115.683594 44.476562 C 115.683594 64.226562 115.683594 64.761719 116.191406 65.027344 C 116.882812 65.375 131.785156 65.375 134.023438 65.027344 C 138.792969 64.253906 142.179688 61.550781 143.671875 57.320312 C 144.179688 55.929688 144.3125 54.964844 144.3125 52.984375 C 144.339844 48.8125 143.085938 46.214844 140.3125 44.636719 L 138.820312 43.808594 L 139.566406 43.40625 C 141.914062 42.226562 143.378906 39.6875 143.589844 36.421875 C 143.910156 31.683594 141.59375 27.214844 137.835938 25.289062 C 134.796875 23.761719 133.167969 23.550781 124.347656 23.550781 C 118.457031 23.550781 116.242188 23.628906 116.003906 23.871094 Z M 129.597656 33.71875 C 130.15625 33.878906 130.769531 34.28125 131.011719 34.601562 C 131.464844 35.269531 131.542969 36.984375 131.144531 37.757812 C 130.796875 38.402344 129.519531 39.070312 128.613281 39.070312 L 127.945312 39.070312 L 127.945312 36.261719 C 127.945312 33.183594 127.890625 33.261719 129.597656 33.71875 Z M 129.890625 49.078125 C 131.277344 49.667969 131.808594 50.46875 131.808594 51.914062 C 131.808594 52.824219 131.648438 53.386719 131.277344 53.789062 C 130.691406 54.484375 129.304688 55.125 128.476562 55.125 C 127.972656 55.125 127.945312 54.964844 127.945312 51.914062 C 127.945312 48.863281 127.972656 48.703125 128.476562 48.703125 C 128.769531 48.703125 129.410156 48.863281 129.890625 49.078125 Z M 129.890625 49.078125 "></path>
    <path style=" stroke:none;fill-rule:nonzero;fill:rgb(85.490196%,16.078431%,10.980392%);fill-opacity:1;" d="M 195.460938 35.804688 C 190.585938 37.546875 188.027344 42.039062 187.734375 49.375 C 187.492188 55.152344 188.796875 59.648438 191.519531 62.484375 C 195.277344 66.339844 202.234375 66.5 205.910156 62.78125 C 208.230469 60.453125 209.082031 57.964844 209.589844 52.238281 C 209.804688 49.722656 209.804688 48.542969 209.589844 48.222656 C 209.351562 47.820312 208.65625 47.769531 204.046875 47.6875 C 200.394531 47.632812 198.660156 47.714844 198.421875 47.929688 C 197.941406 48.328125 197.886719 53.789062 198.367188 54.269531 C 198.554688 54.457031 199.195312 54.589844 199.835938 54.589844 C 200.953125 54.589844 200.980469 54.617188 200.820312 55.3125 C 200.394531 57.105469 199.246094 58.070312 198.179688 57.589844 C 196.820312 56.972656 196.582031 55.957031 196.582031 50.980469 C 196.582031 46.242188 196.769531 45.089844 197.808594 43.78125 C 198.769531 42.550781 200.152344 43.058594 200.605469 44.769531 C 200.6875 45.199219 200.953125 45.601562 201.167969 45.679688 C 201.699219 45.894531 208.738281 43.296875 208.921875 42.84375 C 209.164062 42.226562 207.644531 39.632812 206.257812 38.242188 C 205.566406 37.546875 204.3125 36.636719 203.460938 36.234375 C 201.433594 35.242188 197.621094 35.03125 195.460938 35.804688 Z M 195.460938 35.804688 "></path>
    <path style=" stroke:none;fill-rule:nonzero;fill:rgb(85.490196%,16.078431%,10.980392%);fill-opacity:1;" d="M 145.164062 36.289062 C 144.898438 36.957031 144.976562 54.21875 145.246094 56.597656 C 145.75 61.039062 147.722656 63.554688 151.667969 64.894531 C 153.800781 65.617188 157.453125 65.5625 159.453125 64.789062 C 162.277344 63.691406 164.167969 61.65625 164.863281 58.953125 C 165.207031 57.640625 165.261719 55.554688 165.207031 46.671875 L 165.128906 35.992188 L 156.867188 35.992188 L 156.734375 46.1875 C 156.625 54.296875 156.519531 56.464844 156.226562 56.8125 C 155.800781 57.347656 154.46875 57.402344 154.148438 56.917969 C 154.039062 56.757812 153.878906 51.96875 153.800781 46.296875 L 153.667969 35.992188 L 149.507812 35.914062 C 145.882812 35.859375 145.324219 35.914062 145.164062 36.289062 Z M 145.164062 36.289062 "></path>
    <path style=" stroke:none;fill-rule:nonzero;fill:rgb(85.490196%,16.078431%,10.980392%);fill-opacity:1;" d="M 167.023438 36.261719 C 166.941406 36.5 166.863281 42.925781 166.863281 50.550781 C 166.863281 60.960938 166.941406 64.464844 167.179688 64.707031 C 167.632812 65.160156 174.886719 65.160156 175.339844 64.707031 C 175.550781 64.492188 175.65625 63.128906 175.683594 60.34375 L 175.683594 56.332031 L 177.308594 60.667969 L 178.9375 65.027344 L 183.28125 65.027344 C 186.933594 65.027344 187.625 64.976562 187.757812 64.601562 C 187.839844 64.359375 186.800781 61.871094 185.253906 58.6875 L 182.589844 53.144531 L 183.921875 51.96875 C 186.078125 50.070312 186.453125 49.132812 186.453125 45.492188 C 186.453125 42.761719 186.375 42.253906 185.785156 41.078125 C 184.855469 39.152344 182.988281 37.382812 181.09375 36.636719 C 179.628906 36.074219 179.070312 36.019531 173.367188 35.914062 C 167.820312 35.832031 167.179688 35.859375 167.023438 36.261719 Z M 177.605469 43.941406 C 178.324219 44.824219 178.214844 46.859375 177.363281 47.875 C 176.992188 48.328125 176.457031 48.703125 176.164062 48.703125 C 175.683594 48.703125 175.65625 48.488281 175.65625 45.867188 L 175.65625 43.03125 L 176.402344 43.191406 C 176.804688 43.296875 177.335938 43.621094 177.605469 43.941406 Z M 177.605469 43.941406 "></path>
    <path style=" stroke:none;fill-rule:nonzero;fill:rgb(85.490196%,16.078431%,10.980392%);fill-opacity:1;" d="M 210.734375 36.289062 C 210.65625 36.5 210.574219 42.949219 210.574219 50.578125 C 210.574219 61.976562 210.628906 64.492188 210.949219 64.734375 C 211.1875 64.949219 213.402344 65.027344 218.464844 64.976562 L 225.636719 64.894531 L 225.636719 57.402344 L 222.519531 57.320312 L 219.371094 57.242188 L 219.371094 53.789062 L 222.144531 53.789062 C 224.410156 53.789062 224.941406 53.707031 225.078125 53.359375 C 225.15625 53.121094 225.238281 51.703125 225.238281 50.175781 C 225.238281 48.652344 225.15625 47.230469 225.078125 46.992188 C 224.941406 46.644531 224.410156 46.5625 222.144531 46.5625 L 219.371094 46.5625 L 219.371094 43.378906 L 222.519531 43.296875 L 225.636719 43.21875 L 225.636719 35.992188 L 218.28125 35.914062 C 211.722656 35.859375 210.894531 35.886719 210.734375 36.289062 Z M 210.734375 36.289062 "></path>
    <path style=" stroke:none;fill-rule:nonzero;fill:rgb(85.490196%,16.078431%,10.980392%);fill-opacity:1;" d="M 226.730469 36.261719 C 226.648438 36.5 226.570312 42.925781 226.570312 50.550781 C 226.570312 60.960938 226.648438 64.464844 226.890625 64.707031 C 227.34375 65.160156 234.59375 65.160156 235.046875 64.707031 C 235.257812 64.492188 235.367188 63.128906 235.390625 60.34375 L 235.390625 56.332031 L 237.019531 60.667969 L 238.644531 65.027344 L 242.988281 65.027344 C 246.640625 65.027344 247.332031 64.976562 247.46875 64.601562 C 247.546875 64.359375 246.507812 61.871094 244.960938 58.6875 L 242.296875 53.144531 L 243.628906 51.96875 C 245.789062 50.070312 246.160156 49.132812 246.160156 45.492188 C 246.160156 42.761719 246.082031 42.253906 245.496094 41.078125 C 244.5625 39.152344 242.695312 37.382812 240.804688 36.636719 C 239.335938 36.074219 238.777344 36.019531 233.074219 35.914062 C 227.527344 35.832031 226.890625 35.859375 226.730469 36.261719 Z M 237.3125 43.941406 C 238.03125 44.824219 237.925781 46.859375 237.070312 47.875 C 236.699219 48.328125 236.164062 48.703125 235.871094 48.703125 C 235.390625 48.703125 235.367188 48.488281 235.367188 45.867188 L 235.367188 43.03125 L 236.113281 43.191406 C 236.511719 43.296875 237.042969 43.621094 237.3125 43.941406 Z M 237.3125 43.941406 "></path>
  </g>
</svg>
